<mxfile host="app.diagrams.net" agent="Mozilla/5.0 (Windows NT 10.0; Win64; x64) AppleWebKit/537.36 (KHTML, like Gecko) Chrome/130.0.0.0 Safari/537.36" version="24.8.3">
  <diagram name="Page-1" id="Sa_yM4lnUy2XnWB9rsLo">
    <mxGraphModel dx="1018" dy="633" grid="1" gridSize="10" guides="1" tooltips="1" connect="1" arrows="1" fold="1" page="1" pageScale="1" pageWidth="850" pageHeight="1100" math="0" shadow="0">
      <root>
        <mxCell id="0" />
        <mxCell id="1" parent="0" />
        <mxCell id="4FcMf85m3s6EGFNqydZC-7" style="edgeStyle=orthogonalEdgeStyle;rounded=0;orthogonalLoop=1;jettySize=auto;html=1;exitX=1;exitY=0;exitDx=0;exitDy=0;curved=1;" edge="1" parent="1" source="4FcMf85m3s6EGFNqydZC-1" target="4FcMf85m3s6EGFNqydZC-3">
          <mxGeometry relative="1" as="geometry">
            <Array as="points">
              <mxPoint x="148" y="300" />
              <mxPoint x="230" y="300" />
              <mxPoint x="230" y="360" />
            </Array>
          </mxGeometry>
        </mxCell>
        <mxCell id="4FcMf85m3s6EGFNqydZC-9" value="Button Mode" style="edgeLabel;html=1;align=center;verticalAlign=middle;resizable=0;points=[];" vertex="1" connectable="0" parent="4FcMf85m3s6EGFNqydZC-7">
          <mxGeometry x="-0.078" y="1" relative="1" as="geometry">
            <mxPoint as="offset" />
          </mxGeometry>
        </mxCell>
        <mxCell id="4FcMf85m3s6EGFNqydZC-1" value="Normal mode" style="ellipse;whiteSpace=wrap;html=1;aspect=fixed;" vertex="1" parent="1">
          <mxGeometry x="80" y="320" width="80" height="80" as="geometry" />
        </mxCell>
        <mxCell id="4FcMf85m3s6EGFNqydZC-11" style="edgeStyle=orthogonalEdgeStyle;rounded=0;orthogonalLoop=1;jettySize=auto;html=1;exitX=1;exitY=0;exitDx=0;exitDy=0;curved=1;" edge="1" parent="1" source="4FcMf85m3s6EGFNqydZC-3" target="4FcMf85m3s6EGFNqydZC-4">
          <mxGeometry relative="1" as="geometry">
            <Array as="points">
              <mxPoint x="308" y="300" />
              <mxPoint x="380" y="300" />
              <mxPoint x="380" y="360" />
            </Array>
          </mxGeometry>
        </mxCell>
        <mxCell id="4FcMf85m3s6EGFNqydZC-12" value="Button Mode" style="edgeLabel;html=1;align=center;verticalAlign=middle;resizable=0;points=[];" vertex="1" connectable="0" parent="4FcMf85m3s6EGFNqydZC-11">
          <mxGeometry x="-0.3097" relative="1" as="geometry">
            <mxPoint as="offset" />
          </mxGeometry>
        </mxCell>
        <mxCell id="4FcMf85m3s6EGFNqydZC-18" style="edgeStyle=orthogonalEdgeStyle;rounded=0;orthogonalLoop=1;jettySize=auto;html=1;exitX=0.5;exitY=1;exitDx=0;exitDy=0;" edge="1" parent="1" source="4FcMf85m3s6EGFNqydZC-3" target="4FcMf85m3s6EGFNqydZC-15">
          <mxGeometry relative="1" as="geometry" />
        </mxCell>
        <mxCell id="4FcMf85m3s6EGFNqydZC-22" value="Button 2 - Set time" style="edgeLabel;html=1;align=center;verticalAlign=middle;resizable=0;points=[];" vertex="1" connectable="0" parent="4FcMf85m3s6EGFNqydZC-18">
          <mxGeometry x="-0.181" y="-1" relative="1" as="geometry">
            <mxPoint as="offset" />
          </mxGeometry>
        </mxCell>
        <mxCell id="4FcMf85m3s6EGFNqydZC-3" value="Modify red led&#39;s time" style="ellipse;whiteSpace=wrap;html=1;aspect=fixed;" vertex="1" parent="1">
          <mxGeometry x="240" y="320" width="80" height="80" as="geometry" />
        </mxCell>
        <mxCell id="4FcMf85m3s6EGFNqydZC-13" style="edgeStyle=orthogonalEdgeStyle;rounded=0;orthogonalLoop=1;jettySize=auto;html=1;exitX=1;exitY=0;exitDx=0;exitDy=0;curved=1;" edge="1" parent="1" source="4FcMf85m3s6EGFNqydZC-4" target="4FcMf85m3s6EGFNqydZC-5">
          <mxGeometry relative="1" as="geometry">
            <Array as="points">
              <mxPoint x="468" y="290" />
              <mxPoint x="540" y="290" />
              <mxPoint x="540" y="355" />
            </Array>
          </mxGeometry>
        </mxCell>
        <mxCell id="4FcMf85m3s6EGFNqydZC-14" value="Button Mode" style="edgeLabel;html=1;align=center;verticalAlign=middle;resizable=0;points=[];" vertex="1" connectable="0" parent="4FcMf85m3s6EGFNqydZC-13">
          <mxGeometry x="-0.3497" y="-3" relative="1" as="geometry">
            <mxPoint x="9" as="offset" />
          </mxGeometry>
        </mxCell>
        <mxCell id="4FcMf85m3s6EGFNqydZC-19" style="edgeStyle=orthogonalEdgeStyle;rounded=0;orthogonalLoop=1;jettySize=auto;html=1;exitX=0.5;exitY=1;exitDx=0;exitDy=0;" edge="1" parent="1" source="4FcMf85m3s6EGFNqydZC-4" target="4FcMf85m3s6EGFNqydZC-16">
          <mxGeometry relative="1" as="geometry">
            <Array as="points">
              <mxPoint x="440" y="440" />
              <mxPoint x="440" y="440" />
            </Array>
          </mxGeometry>
        </mxCell>
        <mxCell id="4FcMf85m3s6EGFNqydZC-23" value="Button 2 - Set time" style="edgeLabel;html=1;align=center;verticalAlign=middle;resizable=0;points=[];" vertex="1" connectable="0" parent="4FcMf85m3s6EGFNqydZC-19">
          <mxGeometry x="0.0333" relative="1" as="geometry">
            <mxPoint y="-11" as="offset" />
          </mxGeometry>
        </mxCell>
        <mxCell id="4FcMf85m3s6EGFNqydZC-4" value="Modify amber led&#39;s time" style="ellipse;whiteSpace=wrap;html=1;aspect=fixed;" vertex="1" parent="1">
          <mxGeometry x="400" y="320" width="80" height="80" as="geometry" />
        </mxCell>
        <mxCell id="4FcMf85m3s6EGFNqydZC-21" style="edgeStyle=orthogonalEdgeStyle;rounded=0;orthogonalLoop=1;jettySize=auto;html=1;exitX=0.5;exitY=1;exitDx=0;exitDy=0;" edge="1" parent="1" source="4FcMf85m3s6EGFNqydZC-5" target="4FcMf85m3s6EGFNqydZC-17">
          <mxGeometry relative="1" as="geometry" />
        </mxCell>
        <mxCell id="4FcMf85m3s6EGFNqydZC-24" value="Button 2 - Set time" style="edgeLabel;html=1;align=center;verticalAlign=middle;resizable=0;points=[];" vertex="1" connectable="0" parent="4FcMf85m3s6EGFNqydZC-21">
          <mxGeometry x="-0.0833" relative="1" as="geometry">
            <mxPoint as="offset" />
          </mxGeometry>
        </mxCell>
        <mxCell id="4FcMf85m3s6EGFNqydZC-42" style="edgeStyle=orthogonalEdgeStyle;rounded=0;orthogonalLoop=1;jettySize=auto;html=1;exitX=0.5;exitY=0;exitDx=0;exitDy=0;entryX=0.5;entryY=0;entryDx=0;entryDy=0;curved=1;" edge="1" parent="1" source="4FcMf85m3s6EGFNqydZC-5" target="4FcMf85m3s6EGFNqydZC-1">
          <mxGeometry relative="1" as="geometry">
            <Array as="points">
              <mxPoint x="600" y="220" />
              <mxPoint x="120" y="220" />
            </Array>
          </mxGeometry>
        </mxCell>
        <mxCell id="4FcMf85m3s6EGFNqydZC-43" value="Button Mode" style="edgeLabel;html=1;align=center;verticalAlign=middle;resizable=0;points=[];" vertex="1" connectable="0" parent="4FcMf85m3s6EGFNqydZC-42">
          <mxGeometry x="-0.4846" y="18" relative="1" as="geometry">
            <mxPoint as="offset" />
          </mxGeometry>
        </mxCell>
        <mxCell id="4FcMf85m3s6EGFNqydZC-5" value="Modify green led&#39;s time" style="ellipse;whiteSpace=wrap;html=1;aspect=fixed;" vertex="1" parent="1">
          <mxGeometry x="560" y="320" width="80" height="80" as="geometry" />
        </mxCell>
        <mxCell id="4FcMf85m3s6EGFNqydZC-25" style="edgeStyle=orthogonalEdgeStyle;rounded=0;orthogonalLoop=1;jettySize=auto;html=1;exitX=0.5;exitY=1;exitDx=0;exitDy=0;curved=1;" edge="1" parent="1" source="4FcMf85m3s6EGFNqydZC-15" target="4FcMf85m3s6EGFNqydZC-1">
          <mxGeometry relative="1" as="geometry">
            <Array as="points">
              <mxPoint x="280" y="500" />
              <mxPoint x="120" y="500" />
            </Array>
          </mxGeometry>
        </mxCell>
        <mxCell id="4FcMf85m3s6EGFNqydZC-26" value="Button 3 - Set" style="edgeLabel;html=1;align=center;verticalAlign=middle;resizable=0;points=[];" vertex="1" connectable="0" parent="4FcMf85m3s6EGFNqydZC-25">
          <mxGeometry x="-0.0115" y="-1" relative="1" as="geometry">
            <mxPoint as="offset" />
          </mxGeometry>
        </mxCell>
        <mxCell id="4FcMf85m3s6EGFNqydZC-15" value="TIme set&lt;div&gt;0 - 99&lt;/div&gt;" style="ellipse;whiteSpace=wrap;html=1;aspect=fixed;" vertex="1" parent="1">
          <mxGeometry x="240" y="480" width="80" height="80" as="geometry" />
        </mxCell>
        <mxCell id="4FcMf85m3s6EGFNqydZC-27" style="edgeStyle=orthogonalEdgeStyle;rounded=0;orthogonalLoop=1;jettySize=auto;html=1;exitX=0.5;exitY=1;exitDx=0;exitDy=0;entryX=0.5;entryY=1;entryDx=0;entryDy=0;curved=1;" edge="1" parent="1" source="4FcMf85m3s6EGFNqydZC-16" target="4FcMf85m3s6EGFNqydZC-1">
          <mxGeometry relative="1" as="geometry">
            <Array as="points">
              <mxPoint x="440" y="610" />
              <mxPoint x="120" y="610" />
            </Array>
          </mxGeometry>
        </mxCell>
        <mxCell id="4FcMf85m3s6EGFNqydZC-28" value="Button 3 - Set" style="edgeLabel;html=1;align=center;verticalAlign=middle;resizable=0;points=[];" vertex="1" connectable="0" parent="4FcMf85m3s6EGFNqydZC-27">
          <mxGeometry x="-0.365" relative="1" as="geometry">
            <mxPoint as="offset" />
          </mxGeometry>
        </mxCell>
        <mxCell id="4FcMf85m3s6EGFNqydZC-33" style="edgeStyle=orthogonalEdgeStyle;rounded=0;orthogonalLoop=1;jettySize=auto;html=1;exitX=1;exitY=0;exitDx=0;exitDy=0;entryX=0;entryY=1;entryDx=0;entryDy=0;curved=1;" edge="1" parent="1" source="4FcMf85m3s6EGFNqydZC-16" target="4FcMf85m3s6EGFNqydZC-5">
          <mxGeometry relative="1" as="geometry">
            <Array as="points">
              <mxPoint x="530" y="492" />
              <mxPoint x="530" y="388" />
            </Array>
          </mxGeometry>
        </mxCell>
        <mxCell id="4FcMf85m3s6EGFNqydZC-35" value="Button Mode" style="edgeLabel;html=1;align=center;verticalAlign=middle;resizable=0;points=[];" vertex="1" connectable="0" parent="4FcMf85m3s6EGFNqydZC-33">
          <mxGeometry x="-0.5748" y="4" relative="1" as="geometry">
            <mxPoint x="8" y="-8" as="offset" />
          </mxGeometry>
        </mxCell>
        <mxCell id="4FcMf85m3s6EGFNqydZC-16" value="TIme set&lt;div&gt;0 - 99&lt;/div&gt;" style="ellipse;whiteSpace=wrap;html=1;aspect=fixed;" vertex="1" parent="1">
          <mxGeometry x="400" y="480" width="80" height="80" as="geometry" />
        </mxCell>
        <mxCell id="4FcMf85m3s6EGFNqydZC-29" style="edgeStyle=orthogonalEdgeStyle;rounded=0;orthogonalLoop=1;jettySize=auto;html=1;exitX=0.5;exitY=1;exitDx=0;exitDy=0;entryX=0.5;entryY=1;entryDx=0;entryDy=0;curved=1;" edge="1" parent="1" source="4FcMf85m3s6EGFNqydZC-17" target="4FcMf85m3s6EGFNqydZC-1">
          <mxGeometry relative="1" as="geometry">
            <Array as="points">
              <mxPoint x="600" y="650" />
              <mxPoint x="120" y="650" />
            </Array>
          </mxGeometry>
        </mxCell>
        <mxCell id="4FcMf85m3s6EGFNqydZC-30" value="Button 3 - Set" style="edgeLabel;html=1;align=center;verticalAlign=middle;resizable=0;points=[];" vertex="1" connectable="0" parent="4FcMf85m3s6EGFNqydZC-29">
          <mxGeometry x="-0.4093" y="-5" relative="1" as="geometry">
            <mxPoint as="offset" />
          </mxGeometry>
        </mxCell>
        <mxCell id="4FcMf85m3s6EGFNqydZC-37" style="edgeStyle=orthogonalEdgeStyle;rounded=0;orthogonalLoop=1;jettySize=auto;html=1;curved=1;" edge="1" parent="1" source="4FcMf85m3s6EGFNqydZC-17">
          <mxGeometry relative="1" as="geometry">
            <mxPoint x="638.2842712474619" y="491.715728752538" as="sourcePoint" />
            <mxPoint x="280" y="320" as="targetPoint" />
            <Array as="points">
              <mxPoint x="720" y="492" />
              <mxPoint x="720" y="170" />
              <mxPoint x="280" y="170" />
            </Array>
          </mxGeometry>
        </mxCell>
        <mxCell id="4FcMf85m3s6EGFNqydZC-39" value="Button Mode" style="edgeLabel;html=1;align=center;verticalAlign=middle;resizable=0;points=[];" vertex="1" connectable="0" parent="4FcMf85m3s6EGFNqydZC-37">
          <mxGeometry x="0.1342" y="1" relative="1" as="geometry">
            <mxPoint x="-64" as="offset" />
          </mxGeometry>
        </mxCell>
        <mxCell id="4FcMf85m3s6EGFNqydZC-17" value="TIme set&lt;div&gt;0 - 99&lt;/div&gt;" style="ellipse;whiteSpace=wrap;html=1;aspect=fixed;" vertex="1" parent="1">
          <mxGeometry x="560" y="480" width="80" height="80" as="geometry" />
        </mxCell>
        <mxCell id="4FcMf85m3s6EGFNqydZC-31" style="edgeStyle=orthogonalEdgeStyle;rounded=0;orthogonalLoop=1;jettySize=auto;html=1;exitX=1;exitY=0;exitDx=0;exitDy=0;entryX=0.043;entryY=0.745;entryDx=0;entryDy=0;entryPerimeter=0;curved=1;" edge="1" parent="1" source="4FcMf85m3s6EGFNqydZC-15" target="4FcMf85m3s6EGFNqydZC-4">
          <mxGeometry relative="1" as="geometry">
            <Array as="points">
              <mxPoint x="308" y="460" />
              <mxPoint x="370" y="460" />
              <mxPoint x="370" y="380" />
            </Array>
          </mxGeometry>
        </mxCell>
        <mxCell id="4FcMf85m3s6EGFNqydZC-32" value="Button Mode" style="edgeLabel;html=1;align=center;verticalAlign=middle;resizable=0;points=[];" vertex="1" connectable="0" parent="4FcMf85m3s6EGFNqydZC-31">
          <mxGeometry x="0.2121" y="22" relative="1" as="geometry">
            <mxPoint x="2" y="32" as="offset" />
          </mxGeometry>
        </mxCell>
      </root>
    </mxGraphModel>
  </diagram>
</mxfile>
